<svg xmlns="http://www.w3.org/2000/svg" xml:space="preserve" width="800" height="800" viewBox="0 0 512.002 512.002">
  <path d="M54.039 272.547c-54.903-54.903-54.903-144.222 0-199.125 26.59-26.59 61.943-41.233 99.558-41.233 33.502 0 66.21 12.442 92.109 35.038l10.291 9.617 9.967-9.318c26.223-22.895 58.931-35.337 92.433-35.337 37.615 0 72.969 14.643 99.558 41.233 54.903 54.903 54.903 144.222 0 199.125L255.998 474.506 54.039 272.547z" style="fill:#ff877f"/>
  <path d="M358.398 19.389c-36.779 0-73.259 13.662-102.4 39.919-29.15-26.257-65.621-39.919-102.4-39.919-39.313 0-78.618 14.993-108.612 44.988-59.981 59.981-59.981 157.235 0 217.225l211.012 211.012L467.01 281.601c59.99-59.989 59.99-157.235 0-217.224-29.994-29.995-69.299-44.988-108.612-44.988zm90.513 244.113L255.998 456.406 63.085 263.502c-49.903-49.911-49.903-131.115 0-181.018 24.175-24.175 56.32-37.487 90.513-37.487 31.206 0 60.399 11.563 83.695 31.889l18.705 17.485 18.714-17.493c23.296-20.318 52.489-31.889 83.686-31.889 34.193 0 66.33 13.312 90.513 37.487 49.903 49.911 49.903 131.114 0 181.026z" style="fill:#573a32"/>
</svg>