<svg xmlns="http://www.w3.org/2000/svg" xml:space="preserve" width="800" height="800" viewBox="0 0 512 512">
  <path fill="#FEE1E3" fill-rule="evenodd" d="M343.939 138.178c-68.255 2.582-68.302 70.007-68.302 70.006 0 0-1.951-67.404-68.302-70.006-24.021 0-64.889 26.108-64.889 87.082 0 62.697 133.191 177.589 133.191 177.589 49.23-49.23 133.015-116.61 133.19-177.589.171-60.974-40.868-87.082-64.888-87.082z" clip-rule="evenodd"/>
  <path fill="#959595" d="m313.203 109.151-.324.005c-37.104 1.146-57.835 21.478-67.069 40.699a87.8 87.8 0 0 0-1.25 2.657 87.508 87.508 0 0 0-1.326-2.734c-9.46-19.098-30.041-39.432-66.299-40.622l-.338-.005c-29.475.071-73.348 30.516-73.426 95.619.714 36.907 35.309 80.67 68.822 118.054 33.697 36.991 67.178 65.862 67.333 65.998a8.529 8.529 0 0 0 11.614-.428c48.333-49.314 134.18-115.243 135.688-183.599V204.387c-.083-64.863-44.026-95.171-73.425-95.236zm56.35 95.593c1.115 51.601-74.564 117.299-124.927 165.972-10.901-9.774-35.45-32.417-60.005-59.389-33.084-35.732-65.083-80.768-64.374-106.557.058-56.713 37.599-78.356 56.211-78.54 29.957 1.459 43.482 16.096 51.574 31.318 3.908 7.635 6.041 15.398 7.14 21.179 1.111 5.781 1.138 9.215 1.196 9.215.13 4.662 3.993 8.354 8.655 8.29 4.663-.065 8.415-3.869 8.415-8.532a2.465 2.465 0 0 1-.003-.253h.003l-.003-.04c.026-2.134.658-15.982 7.664-29.943 7.837-15.112 21.224-29.744 52.238-31.233 18.589.179 56.157 21.742 56.216 78.156v.357z"/>
</svg>